<?xml version="1.0" encoding="UTF-8"?>
<svg version="1.1" xmlns="http://www.w3.org/2000/svg" width="1536" height="1024">
<path d="M0 0 C506.88 0 1013.76 0 1536 0 C1536 337.92 1536 675.84 1536 1024 C1029.12 1024 522.24 1024 0 1024 C0 686.08 0 348.16 0 0 Z " fill="#FEFCF8" transform="translate(0,0)"/>
<path d="M0 0 C3.96146148 0.00316275 7.92217466 -0.02042888 11.88354492 -0.0456543 C29.16653618 -0.08788138 46.02667335 1.12528388 63.1628418 3.31567383 C65.39496866 3.58790119 67.62714583 3.85971634 69.859375 4.13110352 C102.34291144 8.16461542 134.2760017 17.21273662 165.22570801 27.66259766 C167.08886805 28.29073467 168.9544239 28.91175161 170.82006836 29.5324707 C201.23098045 39.71178464 230.53302562 52.92501606 259.1628418 67.31567383 C259.85631714 67.66412354 260.54979248 68.01257324 261.26428223 68.37158203 C279.21812312 77.40623671 296.98381043 86.68467463 314.39526367 96.73266602 C318.36712264 99.00450207 322.37143205 101.21658612 326.37353516 103.43457031 C337.86935486 109.81443538 349.18401824 116.4518516 360.43237305 123.25708008 C365.31068951 126.20718509 370.20533745 129.12792844 375.11206055 132.03051758 C375.79250931 132.43305756 376.47295807 132.83559753 377.17402649 133.25033569 C378.55930729 134.06971373 379.94460705 134.8890597 381.32992554 135.70837402 C391.92467246 141.97646306 402.47309994 148.30330263 412.91992188 154.81616211 C429.1588796 164.93658479 445.6728889 174.61175229 462.1628418 184.31567383 C463.0035321 184.8106134 463.0035321 184.8106134 463.86120605 185.31555176 C472.95127291 190.66690627 482.05088725 196.00166946 491.1628418 201.31567383 C492.17926758 201.90864258 493.19569336 202.50161133 494.24291992 203.11254883 C504.7602367 209.23275492 515.32922934 215.08689941 526.27856445 220.39770508 C528.7757457 221.61426396 531.25932298 222.8570767 533.7421875 224.10253906 C535.03797846 224.75232873 536.3347148 225.4002361 537.63232422 226.04638672 C541.5855757 228.01572904 545.52371397 230.01161046 549.4519043 232.03051758 C598.51895641 257.12367212 649.75752516 274.60669709 704.1628418 283.31567383 C705.18764648 283.48292969 706.21245117 283.65018555 707.26831055 283.82250977 C780.69761218 295.59651848 862.02085365 287.83155342 930.81518555 258.68676758 C933.81503593 257.45812407 936.83229457 256.39671398 939.90917969 255.37988281 C973.17297665 244.2840895 1006.07599773 226.15251758 1036.1628418 208.31567383 C1037.52578369 207.51347412 1037.52578369 207.51347412 1038.91625977 206.69506836 C1055.06255665 197.15905699 1070.63954561 186.82072584 1086.1628418 176.31567383 C1087.9882878 175.087698 1089.81380327 173.85982543 1091.6394043 172.63208008 C1100.73750045 166.48816426 1109.54065063 160.11094077 1118.1628418 153.31567383 C1120.24400837 151.70869711 1122.32739452 150.10459137 1124.4128418 148.50317383 C1124.9378125 148.0988916 1125.4627832 147.69460938 1126.00366211 147.27807617 C1129.11939291 144.87942849 1132.24328189 142.49189661 1135.3737793 140.11254883 C1142.43958059 134.73839319 1149.4671882 129.34477992 1156.3034668 123.67895508 C1158.49120978 121.87077952 1160.68835655 120.07821551 1162.8972168 118.29614258 C1170.25898275 112.35342632 1177.55281556 106.36018403 1184.64648438 100.09765625 C1187.43937199 97.66043296 1189.80747807 95.99335569 1193.1628418 94.31567383 C1193.1628418 224.66567383 1193.1628418 355.01567383 1193.1628418 489.31567383 C686.2828418 489.31567383 179.4028418 489.31567383 -342.8371582 489.31567383 C-342.8371582 364.24567383 -342.8371582 239.17567383 -342.8371582 110.31567383 C-336.1896411 105.88399576 -329.59816753 101.70123784 -322.7121582 97.69067383 C-321.1504187 96.78043457 -321.1504187 96.78043457 -319.55712891 95.85180664 C-309.68036804 90.14414199 -299.60625056 84.86745949 -289.45385742 79.67114258 C-287.08708641 78.44513841 -284.74180283 77.18878716 -282.40356445 75.90942383 C-237.1074591 51.20058148 -186.87956665 31.65272156 -136.85180664 19.07885742 C-133.94710059 18.34350667 -131.05204983 17.5780867 -128.1574707 16.80395508 C-86.09735638 5.71109805 -43.50369702 -0.07226972 0 0 Z " fill="#FEFCF8" transform="translate(342.837158203125,534.684326171875)"/>
<path d="M0 0 C3.23837435 0.39798602 6.47775209 0.74081468 9.72412109 1.06640625 C70.57533842 7.36531792 128.71361575 29.75039363 183.33740234 56.41015625 C184.05279175 56.75860596 184.76818115 57.10705566 185.50524902 57.46606445 C203.8470491 66.40790316 222.03728165 75.52664861 239.65527344 85.84033203 C242.43490329 87.46722261 245.22322213 89.07839933 248.01318359 90.6875 C278.1412576 108.10993344 307.81388102 126.300809 337.30859375 144.77075195 C348.94343126 152.05133678 360.63106006 159.24521298 372.33740234 166.41015625 C372.90970581 166.76053955 373.48200928 167.11092285 374.07165527 167.47192383 C390.70924674 177.65536711 407.42714084 187.68374949 424.33740234 197.41015625 C425.28389648 197.95623535 426.23039063 198.50231445 427.20556641 199.06494141 C440.15700113 206.52296779 453.27071807 213.59627081 466.56396484 220.42578125 C469.95579882 222.16952475 473.33058456 223.93348194 476.67333984 225.76953125 C526.15012685 252.91971179 580.9536155 270.56056151 636.33740234 280.41015625 C637.2879248 280.5817627 638.23844727 280.75336914 639.21777344 280.93017578 C677.47139947 287.67055049 718.47273326 287.46916226 756.94091797 282.8203125 C760.08657944 282.44044539 763.23401008 282.09300479 766.38427734 281.75390625 C781.59155337 280.03645208 796.43989832 276.86390286 811.33740234 273.41015625 C812.87847656 273.05630859 812.87847656 273.05630859 814.45068359 272.6953125 C852.60199454 263.84500839 889.17588891 250.55835476 924.33740234 233.41015625 C926.09310547 232.56300049 926.09310547 232.56300049 927.88427734 231.69873047 C943.54234675 224.12824194 958.72828792 215.99579922 973.63085938 207.03027344 C976.11365824 205.54408787 978.6097518 204.08507425 981.11474609 202.63671875 C1010.40297594 185.58187921 1038.20765476 165.77678668 1065.06103516 145.15185547 C1067.8654287 143.00615153 1070.69157707 140.89249098 1073.52490234 138.78515625 C1078.63226542 134.96753132 1083.67658076 131.0713464 1088.71240234 127.16015625 C1089.47447998 126.56895996 1090.23655762 125.97776367 1091.02172852 125.36865234 C1094.3207952 122.79968014 1097.58302566 120.21724583 1100.75146484 117.48828125 C1103.33740234 115.41015625 1103.33740234 115.41015625 1105.33740234 115.41015625 C1105.66272652 128.110129 1105.91100399 140.80910076 1106.06277275 153.51240158 C1106.13564244 159.41227804 1106.23435077 165.30929118 1106.39355469 171.20751953 C1106.54642403 176.907166 1106.62952945 182.60407151 1106.66568375 188.30561066 C1106.6914227 190.47317909 1106.74169237 192.64060822 1106.81762314 194.80699921 C1107.41713724 212.63153847 1107.41713724 212.63153847 1102.37359619 218.29748535 C1099.53286542 220.95191909 1096.48513607 223.13979512 1093.19776726 225.20514297 C1090.07927158 227.22508469 1087.22885739 229.5823931 1084.33740234 231.91015625 C1083.16292318 232.82161458 1081.98844401 233.73307292 1080.81396484 234.64453125 C1077.34435316 237.36996439 1074.02923543 240.25237995 1070.71240234 243.16015625 C1063.4158935 249.53145936 1055.66094904 255.25276152 1047.88427734 261.01953125 C1044.64797615 263.42133092 1041.46108423 265.86247244 1038.33740234 268.41015625 C1026.208404 278.24215845 1013.61069209 287.46578076 1000.52294922 295.97412109 C997.96206427 297.65677584 995.42302247 299.37006292 992.88427734 301.0859375 C979.27148243 310.27175273 965.47575122 319.05533462 951.33740234 327.41015625 C950.04552002 328.17489258 950.04552002 328.17489258 948.72753906 328.95507812 C934.97891004 337.0521072 920.89448485 344.46237581 906.68017578 351.70507812 C903.49077167 353.3319258 900.30843606 354.97195765 897.12646484 356.61328125 C813.53867483 399.43283498 717.79403099 418.63632662 547.41424561 388.79949951 C515.93582321 378.5904155 485.91553203 365.15100636 456.33740234 350.41015625 C455.66292053 350.07445618 454.98843872 349.7387561 454.29351807 349.3928833 C433.97931504 339.27859076 413.98660269 328.81428051 394.45556641 317.24560547 C388.91989227 313.98713396 383.34458817 310.79751029 377.77490234 307.59765625 C368.57000485 302.29533597 359.41377239 296.92943776 350.33740234 291.41015625 C348.28931413 290.16782223 346.24112725 288.92565087 344.19287109 287.68359375 C335.16785071 282.20898691 326.14447024 276.73166471 317.13117981 271.23776245 C290.40507666 254.94826373 263.53627723 238.90006026 236.33740234 223.41015625 C235.29003906 222.81364258 234.24267578 222.21712891 233.16357422 221.60253906 C219.24503374 213.69602296 205.19166977 206.10927327 190.96435547 198.77441406 C188.53216793 197.51130403 186.11202372 196.22874097 183.69677734 194.93359375 C147.24034454 175.39485199 109.57242557 159.44298512 70.33740234 146.41015625 C69.11907715 146.00539063 67.90075195 145.600625 66.64550781 145.18359375 C49.76940885 139.64774939 32.65571795 135.3224422 15.33740234 131.41015625 C14.47083008 131.20938477 13.60425781 131.00861328 12.71142578 130.80175781 C-2.4102651 127.32760116 -17.82855292 125.47652483 -33.19775391 123.4609375 C-33.88680313 123.36944931 -34.57585236 123.27796112 -35.28578186 123.18370056 C-45.59743071 121.85249886 -55.77516297 121.24519352 -66.17431641 121.20703125 C-67.44877121 121.20001694 -68.72322601 121.19300262 -70.03630066 121.18577576 C-74.14090451 121.16631232 -78.24545234 121.1613405 -82.35009766 121.16015625 C-83.04852028 121.15971439 -83.7469429 121.15927254 -84.46652985 121.15881729 C-105.35603254 121.1518785 -125.94244309 121.47243967 -146.66259766 124.41015625 C-147.91782227 124.57644531 -149.17304688 124.74273438 -150.46630859 124.9140625 C-172.13560823 127.81548125 -193.4081281 132.33000536 -214.66259766 137.41015625 C-215.79084961 137.67973145 -216.91910156 137.94930664 -218.08154297 138.22705078 C-286.4343443 154.81281589 -353.1043373 184.78557809 -413.47216797 220.53890991 C-416.97534974 222.59359116 -420.49740154 224.61279346 -424.02563477 226.62402344 C-424.6671624 226.9901474 -425.30869003 227.35627136 -425.9696579 227.73348999 C-427.53376704 228.62606984 -429.09815341 229.51816388 -430.66259766 230.41015625 C-431.1050071 219.70140826 -431.44146192 208.9948673 -431.64702892 198.27880669 C-431.74576152 193.30089125 -431.87931203 188.32927062 -432.09594727 183.35498047 C-433.57353143 148.51876908 -433.57353143 148.51876908 -426.73754883 140.87451172 C-422.84338447 137.60833603 -418.65484425 135.38499927 -413.98410034 133.42205811 C-410.88482593 132.07113934 -408.32390728 130.20722347 -405.62744141 128.18359375 C-403.95444331 127.04667496 -402.27872404 125.91374849 -400.60009766 124.78515625 C-399.22760864 123.856427 -399.22760864 123.856427 -397.82739258 122.90893555 C-395.10867835 121.0716859 -392.3859914 119.24045942 -389.66259766 117.41015625 C-388.46521973 116.60167236 -388.46521973 116.60167236 -387.24365234 115.77685547 C-357.74481705 95.85921192 -327.21543736 77.86236765 -295.66259766 61.41015625 C-294.90833496 61.01570313 -294.15407227 60.62125 -293.37695312 60.21484375 C-288.846314 57.85904628 -284.26600653 55.61975511 -279.66259766 53.41015625 C-278.64633301 52.91725098 -277.63006836 52.4243457 -276.58300781 51.91650391 C-197.13550346 13.50884954 -109.34426933 -8.31324573 0 0 Z " fill="#E6AE48" transform="translate(430.66259765625,414.58984375)"/>
<path d="M0 0 C0.99 0.495 0.99 0.495 2 1 C-2.58664185 5.04061306 -7.29831484 8.92148025 -12.0625 12.75 C-12.6517627 13.23380127 -13.24102539 13.71760254 -13.84814453 14.21606445 C-17.42271797 17.06285354 -20.50036539 18.82201347 -25 20 C-25 20.66 -25 21.32 -25 22 C-29.38461538 25 -29.38461538 25 -32 25 C-32.226875 25.598125 -32.45375 26.19625 -32.6875 26.8125 C-34.40916125 29.68193541 -36.0345813 30.42264963 -39 32 C-40.43932971 32.78833517 -41.87665566 33.58033442 -43.3125 34.375 C-44.46878906 35.01115234 -44.46878906 35.01115234 -45.6484375 35.66015625 C-48.62916655 37.35847862 -51.50392846 39.19954899 -54.37109375 41.08203125 C-56 42 -56 42 -58 42 C-58 42.66 -58 43.32 -58 44 C-60.90548882 46.04169485 -62.40142046 47 -66 47 C-66.33 47.99 -66.66 48.98 -67 50 C-69.06640625 50.94921875 -69.06640625 50.94921875 -71.5625 51.6875 C-72.38878906 51.93886719 -73.21507812 52.19023438 -74.06640625 52.44921875 C-74.70449219 52.63097656 -75.34257813 52.81273437 -76 53 C-72.54170703 49.10270092 -68.56634748 46.78807992 -64.125 44.1875 C-53.09856523 37.58797628 -42.5448704 30.33719268 -32 23 C-31.21141602 22.45134277 -30.42283203 21.90268555 -29.61035156 21.33740234 C-19.62965509 14.37507906 -9.78439806 7.23504253 0 0 Z " fill="#D99025" transform="translate(1492,563)"/>
<path d="M0 0 C0.66 0 1.32 0 2 0 C1.75 1.875 1.75 1.875 1 4 C-0.875 5.0625 -0.875 5.0625 -3 6 C-3.515625 6.53625 -4.03125 7.0725 -4.5625 7.625 C-6 9 -6 9 -9 9 C-9 9.66 -9 10.32 -9 11 C-10.3125 12.625 -10.3125 12.625 -12 14 C-12.99 14 -13.98 14 -15 14 C-15.33 14.99 -15.66 15.98 -16 17 C-17.36138614 17.91893564 -18.72915281 18.82961881 -20.125 19.6953125 C-22.43791491 21.30471579 -24.42920379 23.15261026 -26.5 25.0625 C-29.86087481 28.10032276 -32.73651252 30.44018751 -37 32 C-37.66 31.67 -38.32 31.34 -39 31 C-32.78193424 25.8411238 -26.49467647 20.8001334 -20.07641602 15.89331055 C-15.77710257 12.60477342 -11.5067049 9.28099988 -7.25 5.9375 C-6.64115967 5.46006348 -6.03231934 4.98262695 -5.4050293 4.49072266 C-2.61102731 2.35095951 -2.61102731 2.35095951 0 0 Z " fill="#D78F24" transform="translate(1534,530)"/>
<path d="M0 0 C0.66 0 1.32 0 2 0 C2 0.66 2 1.32 2 2 C2.86625 2.103125 3.7325 2.20625 4.625 2.3125 C8.18399879 3.03748124 10.7805025 4.35600128 14 6 C16.73572585 6.69907414 16.73572585 6.69907414 19 7 C19 7.66 19 8.32 19 9 C19.763125 9.144375 20.52625 9.28875 21.3125 9.4375 C24 10 24 10 27 11 C27 11.66 27 12.32 27 13 C27.59167969 13.18175781 28.18335938 13.36351562 28.79296875 13.55078125 C33.212508 14.95667057 37.12540125 16.37527181 41 19 C40.67 19.66 40.34 20.32 40 21 C39.31599121 20.66790527 38.63198242 20.33581055 37.92724609 19.99365234 C34.74473685 18.45082837 31.56019657 16.91226837 28.375 15.375 C27.23611328 14.82465088 26.09722656 14.27430176 24.92382812 13.70727539 C17.79558355 10.28261435 10.64930226 7.05391508 3.28125 4.18359375 C1 3 1 3 0 0 Z " fill="#F2BB45" transform="translate(556,579)"/>
<path d="M0 0 C0.66 0.33 1.32 0.66 2 1 C-8.48733257 9.07875858 -19.76535313 16.02069448 -31 23 C-31.88510254 23.57903076 -32.77020508 24.15806152 -33.68212891 24.75463867 C-34.44702637 25.16560791 -35.21192383 25.57657715 -36 26 C-36.66 25.67 -37.32 25.34 -38 25 C-34.25 22 -34.25 22 -32 22 C-32 21.34 -32 20.68 -32 20 C-29.9887485 18.99437425 -27.9848767 17.99312577 -25.9375 17.0625 C-23.9614976 16.10534912 -23.9614976 16.10534912 -22.61328125 14.55078125 C-20.8948368 12.89891092 -19.41230576 12.1023622 -17.25 11.125 C-14.31223787 9.72658187 -11.73991114 8.18656599 -9.125 6.25 C-6 4 -6 4 -4 4 C-3.67 3.01 -3.34 2.02 -3 1 C-2.01 0.67 -1.02 0.34 0 0 Z " fill="#DA9123" transform="translate(1428,710)"/>
<path d="M0 0 C1.98 0.99 3.96 1.98 6 3 C6 3.66 6 4.32 6 5 C8.31 5.66 10.62 6.32 13 7 C13 7.66 13 8.32 13 9 C14.65 9.33 16.3 9.66 18 10 C18 10.66 18 11.32 18 12 C20.31 12.66 22.62 13.32 25 14 C25 14.66 25 15.32 25 16 C26.32 16 27.64 16 29 16 C29.33 17.32 29.66 18.64 30 20 C29.175 19.52691406 28.35 19.05382812 27.5 18.56640625 C18.35937867 13.33095813 9.18670576 8.15409986 0 3 C0 2.01 0 1.02 0 0 Z " fill="#F3BD48" transform="translate(674,639)"/>
<path d="M0 0 C-4.3733435 2.16466464 -8.75158775 4.31894146 -13.13476562 6.46362305 C-14.62607956 7.19514049 -16.11599802 7.92950986 -17.60449219 8.66674805 C-19.74055946 9.72411557 -21.88138594 10.77122625 -24.0234375 11.81640625 C-24.69120209 12.14967422 -25.35896667 12.4829422 -26.04696655 12.8263092 C-27.66980654 13.61194308 -29.33245168 14.31435225 -31 15 C-31.66 14.67 -32.32 14.34 -33 14 C-28.25 11 -28.25 11 -26 11 C-26 10.34 -26 9.68 -26 9 C-24.41800369 8.35089846 -22.83434276 7.70585306 -21.25 7.0625 C-20.36828125 6.70285156 -19.4865625 6.34320312 -18.578125 5.97265625 C-16.38813896 5.14643424 -14.28101729 4.50630057 -12 4 C-12 3.34 -12 2.68 -12 2 C-10.56656 1.46809459 -9.12804633 0.94984742 -7.6875 0.4375 C-6.88699219 0.14746094 -6.08648437 -0.14257812 -5.26171875 -0.44140625 C-3 -1 -3 -1 0 0 Z " fill="#DC941D" transform="translate(92,596)"/>
<path d="M0 0 C0.66 0.33 1.32 0.66 2 1 C1.01 2.485 1.01 2.485 0 4 C-1.32 4 -2.64 4 -4 4 C-4 4.66 -4 5.32 -4 6 C-6.90548882 8.04169485 -8.40142046 9 -12 9 C-12.33 9.99 -12.66 10.98 -13 12 C-15.06640625 12.94921875 -15.06640625 12.94921875 -17.5625 13.6875 C-18.80193359 14.06455078 -18.80193359 14.06455078 -20.06640625 14.44921875 C-20.70449219 14.63097656 -21.34257813 14.81273437 -22 15 C-18.27985787 10.74114876 -13.65635435 8.09181398 -8.875 5.1875 C-8.05128906 4.67251953 -7.22757813 4.15753906 -6.37890625 3.62695312 C-5.19748047 2.90475586 -5.19748047 2.90475586 -3.9921875 2.16796875 C-3.27401855 1.72735107 -2.55584961 1.2867334 -1.81591797 0.83276367 C-1.21666504 0.55795166 -0.61741211 0.28313965 0 0 Z " fill="#DE9927" transform="translate(83,505)"/>
<path d="M0 0 C5.33333333 2 10.66666667 4 16 6 C16 6.66 16 7.32 16 8 C18.64 8.33 21.28 8.66 24 9 C24 9.99 24 10.98 24 12 C15.82602049 9.41874331 7.93359166 6.22988119 0 3 C0 2.01 0 1.02 0 0 Z " fill="#F1BC49" transform="translate(530,568)"/>
<path d="M0 0 C0.83402344 0.19335938 1.66804688 0.38671875 2.52734375 0.5859375 C9.01208167 2.08641523 15.49984785 3.56776309 22 5 C22 5.99 22 6.98 22 8 C19.08180761 7.38153536 16.16558978 6.75551865 13.25 6.125 C12.425 5.95097656 11.6 5.77695312 10.75 5.59765625 C9.95078125 5.42363281 9.1515625 5.24960937 8.328125 5.0703125 C7.5949707 4.91320801 6.86181641 4.75610352 6.10644531 4.59423828 C3.89571644 3.97058111 2.01763516 3.08856601 0 2 C0 1.34 0 0.68 0 0 Z " fill="#EFBC4D" transform="translate(455,545)"/>
<path d="M0 0 C2.34773815 0.9849193 4.55597897 2.02336659 6.8125 3.1875 C7.42931641 3.49236328 8.04613281 3.79722656 8.68164062 4.11132812 C12.49258585 6.04312501 15.76182445 8.218253 19 11 C18.01 11.495 18.01 11.495 17 12 C14.43359375 11.07421875 14.43359375 11.07421875 11.4375 9.6875 C9.95056641 9.01267578 9.95056641 9.01267578 8.43359375 8.32421875 C6 7 6 7 5 5 C4.01 4.67 3.02 4.34 2 4 C1.01 3.67 0.02 3.34 -1 3 C-1.33 2.34 -1.66 1.68 -2 1 C-1.34 0.67 -0.68 0.34 0 0 Z " fill="#EEB94A" transform="translate(647,488)"/>
<path d="M0 0 C0.33 0.66 0.66 1.32 1 2 C-4.75 5 -4.75 5 -7 5 C-7 5.66 -7 6.32 -7 7 C-9 8 -11 9 -13 10 C-14.051875 10.556875 -15.10375 11.11375 -16.1875 11.6875 C-19 13 -19 13 -22 13 C-22 12.34 -22 11.68 -22 11 C-14.74 7.37 -7.48 3.74 0 0 Z " fill="#DC9629" transform="translate(1383,634)"/>
<path d="M0 0 C8.415 3.96 8.415 3.96 17 8 C16.01 8.99 15.02 9.98 14 11 C13.67 10.34 13.34 9.68 13 9 C11.34750513 8.29894157 9.67632417 7.64199649 8 7 C5.31308481 5.70630009 2.65528107 4.35729007 0 3 C0 2.01 0 1.02 0 0 Z " fill="#EDB84E" transform="translate(900,637)"/>
<path d="M0 0 C1.98 0.66 3.96 1.32 6 2 C6 2.66 6 3.32 6 4 C6.99 4.2475 7.98 4.495 9 4.75 C13.28095196 5.95812141 17.09059215 7.90821294 21 10 C20.67 10.99 20.34 11.98 20 13 C13.4 9.37 6.8 5.74 0 2 C0 1.34 0 0.68 0 0 Z " fill="#F3BD48" transform="translate(622,611)"/>
<path d="M0 0 C0.66 0.33 1.32 0.66 2 1 C-1.4769395 3.17025671 -4.95691182 5.33560063 -8.4375 7.5 C-9.43072266 8.12003906 -10.42394531 8.74007812 -11.44726562 9.37890625 C-12.39150391 9.96542969 -13.33574219 10.55195312 -14.30859375 11.15625 C-15.18314209 11.70087891 -16.05769043 12.24550781 -16.95874023 12.80664062 C-19 14 -19 14 -20 14 C-20 12.35 -20 10.7 -20 9 C-18.96939453 9.12181641 -18.96939453 9.12181641 -17.91796875 9.24609375 C-14.04675386 8.91960575 -11.46985252 7.15429074 -8.3125 5.0625 C-7.16301668 4.32381982 -6.01328774 3.58552168 -4.86328125 2.84765625 C-3.91839844 2.23792969 -2.97351563 1.62820313 -2 1 C-1.34 0.67 -0.68 0.34 0 0 Z " fill="#DD9626" transform="translate(20,631)"/>
<path d="M0 0 C1.32 0.33 2.64 0.66 4 1 C-0.88471613 4.86435321 -5.75430616 8.63737574 -11 12 C-11.66 11.67 -12.32 11.34 -13 11 C-12.67 10.34 -12.34 9.68 -12 9 C-11.01 9 -10.02 9 -9 9 C-8.67 8.01 -8.34 7.02 -8 6 C-7.34 6 -6.68 6 -6 6 C-5.67 5.34 -5.34 4.68 -5 4 C-4.34 4 -3.68 4 -3 4 C-3 3.34 -3 2.68 -3 2 C-2.01 2 -1.02 2 0 2 C0 1.34 0 0.68 0 0 Z " fill="#DA932A" transform="translate(1446,696)"/>
<path d="M0 0 C0.66 0.33 1.32 0.66 2 1 C-0.267785 4.58071317 -2.12634076 5.4883281 -6 7 C-6.680625 7.721875 -7.36125 8.44375 -8.0625 9.1875 C-9.0215625 10.0846875 -9.0215625 10.0846875 -10 11 C-12.12109375 10.61328125 -12.12109375 10.61328125 -14 10 C-12.22970554 8.70759488 -10.45874502 7.41610207 -8.6875 6.125 C-7.70136719 5.40570312 -6.71523438 4.68640625 -5.69921875 3.9453125 C-3.82476885 2.5944065 -1.92247007 1.28164671 0 0 Z " fill="#DB9525" transform="translate(35,536)"/>
<path d="M0 0 C0.33 0.66 0.66 1.32 1 2 C-3.29834897 7.47062596 -10.4246285 9.49314403 -17 11 C-13.41515516 7.99378503 -9.74744951 5.56997115 -5.6875 3.25 C-4.61886719 2.63640625 -3.55023438 2.0228125 -2.44921875 1.390625 C-1.64097656 0.93171875 -0.83273438 0.4728125 0 0 Z " fill="#DF9924" transform="translate(102,494)"/>
<path d="M0 0 C1.32 0.33 2.64 0.66 4 1 C4 1.66 4 2.32 4 3 C5.2684375 3.37125 5.2684375 3.37125 6.5625 3.75 C10.38427474 5.13973627 13.51868063 6.91120838 17 9 C16.34 9.66 15.68 10.32 15 11 C12.4945424 9.55041382 9.99581801 8.09101202 7.5 6.625 C6.78457031 6.2125 6.06914063 5.8 5.33203125 5.375 C3.52075689 4.30548562 1.75595814 3.1580962 0 2 C0 1.34 0 0.68 0 0 Z " fill="#F2BC4B" transform="translate(722,668)"/>
<path d="M0 0 C4.11526292 0.64173654 7.30388435 2.86986158 10.75 5.0625 C11.35199219 5.43955078 11.95398438 5.81660156 12.57421875 6.20507812 C14.05249143 7.13193163 15.52666089 8.06532389 17 9 C15 10 15 10 13.0625 9.75 C11 9 11 9 9.6328125 7.6171875 C7.83028411 5.83190819 5.99053317 4.66833117 3.8125 3.375 C2.52556107 2.60979307 1.24942675 1.82503714 0 1 C0 0.67 0 0.34 0 0 Z " fill="#EFB744" transform="translate(825,596)"/>
<path d="M0 0 C0.99 0.33 1.98 0.66 3 1 C-2.445 5.455 -2.445 5.455 -8 10 C-8.66 9.67 -9.32 9.34 -10 9 C-9.34 7.68 -8.68 6.36 -8 5 C-7.01 5 -6.02 5 -5 5 C-3.39588754 3.64594139 -3.39588754 3.64594139 -2 2 C-1.34 1.34 -0.68 0.68 0 0 Z " fill="#D58A20" transform="translate(1485,667)"/>
<path d="M0 0 C0 0.66 0 1.32 0 2 C-1.98 2.33 -3.96 2.66 -6 3 C-6 3.66 -6 4.32 -6 5 C-8.97 5.66 -11.94 6.32 -15 7 C-12.30474522 4.30474522 -10.85961238 3.27393138 -7.5 1.8125 C-6.7265625 1.46832031 -5.953125 1.12414062 -5.15625 0.76953125 C-3 0 -3 0 0 0 Z " fill="#DD9727" transform="translate(1341,656)"/>
<path d="M0 0 C0.66 0.33 1.32 0.66 2 1 C-0.38335287 3.67438936 -2.87036148 5.15158012 -6.0625 6.75 C-7.37927734 7.42289063 -7.37927734 7.42289063 -8.72265625 8.109375 C-9.47417969 8.40328125 -10.22570313 8.6971875 -11 9 C-11.66 8.67 -12.32 8.34 -13 8 C-10.880788 6.63594382 -8.75551882 5.28368225 -6.625 3.9375 C-6.02171875 3.54755859 -5.4184375 3.15761719 -4.796875 2.75585938 C-3.23507443 1.77539568 -1.62007786 0.88083925 0 0 Z " fill="#DA9020" transform="translate(1409,619)"/>
<path d="M0 0 C0.33 0.66 0.66 1.32 1 2 C4.02934491 2.65772428 4.02934491 2.65772428 7 3 C7.33 3.99 7.66 4.98 8 6 C10.01508358 6.73323796 10.01508358 6.73323796 12 7 C12 7.66 12 8.32 12 9 C7.69235185 7.43358249 3.93828536 5.31663844 0 3 C0 2.01 0 1.02 0 0 Z " fill="#F3BE4B" transform="translate(653,627)"/>
<path d="M0 0 C-1.2363168 0.89422914 -2.48971562 1.76487891 -3.75 2.625 C-4.44609375 3.11226562 -5.1421875 3.59953125 -5.859375 4.1015625 C-8 5 -8 5 -10.265625 4.1484375 C-10.83796875 3.76945313 -11.4103125 3.39046875 -12 3 C-10.5682384 2.30062798 -9.12932968 1.61587282 -7.6875 0.9375 C-6.48673828 0.36322266 -6.48673828 0.36322266 -5.26171875 -0.22265625 C-3 -1 -3 -1 0 0 Z " fill="#DE992A" transform="translate(1325,664)"/>
<path d="M0 0 C0.33 0.99 0.66 1.98 1 3 C-0.26239712 3.86658615 -1.53527501 4.71792059 -2.8125 5.5625 C-3.87404297 6.27599609 -3.87404297 6.27599609 -4.95703125 7.00390625 C-7 8 -7 8 -10 7 C-6.7 4.69 -3.4 2.38 0 0 Z " fill="#DD9726" transform="translate(53,524)"/>
<path d="M0 0 C2.31 0.66 4.62 1.32 7 2 C7 2.66 7 3.32 7 4 C8.65 4.33 10.3 4.66 12 5 C11.01 5.66 10.02 6.32 9 7 C6.03 5.35 3.06 3.7 0 2 C0 1.34 0 0.68 0 0 Z " fill="#F2BE4A" transform="translate(606,603)"/>
<path d="M0 0 C2.97 0.495 2.97 0.495 6 1 C6 1.66 6 2.32 6 3 C7.65 3.33 9.3 3.66 11 4 C10.01 4.66 9.02 5.32 8 6 C6.66402348 5.19185349 5.331275 4.37836819 4 3.5625 C3.2575 3.11003906 2.515 2.65757812 1.75 2.19140625 C1.1725 1.79824219 0.595 1.40507813 0 1 C0 0.67 0 0.34 0 0 Z " fill="#EFBA4D" transform="translate(812,723)"/>
<path d="M0 0 C3 0 3 0 4.875 1.8125 C5.57625 2.534375 6.2775 3.25625 7 4 C8.63978318 5.04349839 10.30094366 6.05607981 12 7 C11.01 7.495 11.01 7.495 10 8 C7.6171875 6.85546875 7.6171875 6.85546875 4.875 5.1875 C3.96492187 4.64480469 3.05484375 4.10210938 2.1171875 3.54296875 C1.41851563 3.03378906 0.71984375 2.52460937 0 2 C0 1.34 0 0.68 0 0 Z " fill="#F1BA4A" transform="translate(773,699)"/>
<path d="M0 0 C0.79921875 0.02707031 1.5984375 0.05414062 2.421875 0.08203125 C3.02515625 0.11683594 3.6284375 0.15164063 4.25 0.1875 C1.08759418 2.29577055 -0.25657469 2.52567465 -3.9375 2.8125 C-5.28908203 2.92464844 -5.28908203 2.92464844 -6.66796875 3.0390625 C-7.69857422 3.11253906 -7.69857422 3.11253906 -8.75 3.1875 C-5.74754796 0.56379764 -3.97853212 -0.17552348 0 0 Z " fill="#E09E2E" transform="translate(1200.75,812.8125)"/>
<path d="M0 0 C-0.33 0.99 -0.66 1.98 -1 3 C-3.28515625 3.94921875 -3.28515625 3.94921875 -6.0625 4.6875 C-7.44115234 5.06455078 -7.44115234 5.06455078 -8.84765625 5.44921875 C-9.55792969 5.63097656 -10.26820312 5.81273437 -11 6 C-8.05970059 2.8666063 -4.47443154 0 0 0 Z " fill="#DC9424" transform="translate(1355,649)"/>
<path d="M0 0 C2.97 1.65 5.94 3.3 9 5 C8.67 5.99 8.34 6.98 8 8 C7.67 7.01 7.34 6.02 7 5 C5.01751285 4.28293018 3.01584651 3.61709587 1 3 C0.34 2.34 -0.32 1.68 -1 1 C-0.67 0.67 -0.34 0.34 0 0 Z " fill="#EFB946" transform="translate(747,547)"/>
<path d="M0 0 C2.97 0.495 2.97 0.495 6 1 C6 1.66 6 2.32 6 3 C6.66 3.33 7.32 3.66 8 4 C4.23375329 5.25541557 2.62811066 4.37061958 -1 3 C-0.67 2.01 -0.34 1.02 0 0 Z " fill="#F0BD4E" transform="translate(514,562)"/>
<path d="M0 0 C2.97 0 5.94 0 9 0 C9 0.99 9 1.98 9 3 C7.35 3 5.7 3 4 3 C4 2.34 4 1.68 4 1 C2.68 0.67 1.36 0.34 0 0 Z " fill="#ECB84E" transform="translate(385,534)"/>
<path d="M0 0 C2.31 0 4.62 0 7 0 C7.33 0.66 7.66 1.32 8 2 C5.29120665 3.35439668 2.99066732 3.06501451 0 3 C0 2.01 0 1.02 0 0 Z " fill="#EAB653" transform="translate(329,414)"/>
<path d="M0 0 C0.66 0.66 1.32 1.32 2 2 C-0.97 4.475 -0.97 4.475 -4 7 C-4.66 6.67 -5.32 6.34 -6 6 C-4 3 -4 3 -1 2 C-0.67 1.34 -0.34 0.68 0 0 Z " fill="#D68B1E" transform="translate(1473,676)"/>
<path d="M0 0 C0.99 0.33 1.98 0.66 3 1 C1.37660195 2.70884005 -0.29319053 4.37446717 -2 6 C-2.66 6 -3.32 6 -4 6 C-4 5.01 -4 4.02 -4 3 C-3.01 3 -2.02 3 -1 3 C-0.67 2.01 -0.34 1.02 0 0 Z " fill="#D58A25" transform="translate(1524,635)"/>
<path d="M0 0 C0 3 0 3 -1.25 4.625 C-3.17415516 6.1368362 -4.60989418 6.58791279 -7 7 C-7 6.34 -7 5.68 -7 5 C-5.46875 3.7109375 -5.46875 3.7109375 -3.5 2.375 C-2.8503125 1.92898438 -2.200625 1.48296875 -1.53125 1.0234375 C-1.0259375 0.68570313 -0.520625 0.34796875 0 0 Z " fill="#DC9320" transform="translate(8,555)"/>
<path d="M0 0 C3.96 1.98 3.96 1.98 8 4 C7.34 4.66 6.68 5.32 6 6 C2.535 4.02 2.535 4.02 -1 2 C-0.67 1.34 -0.34 0.68 0 0 Z " fill="#EFB946" transform="translate(684,509)"/>
</svg>
